# xmcd
#
# Track frame offsets:
#	150
#	18629
#	37805
#	62545
#	77334
#	101490
#	119003
#	130863
#	149145
#	166758
#	177143
#	196919
#	218425
#	236381
#	256687
#	274732
#	293682
#	304546
#	322315
#
# Disc length: 4538 seconds
# Revision: 0
# Processed by: cddbd v1.5.2PL0 Copyright (c) Steve Scherf et al.
# Submitted via: dBpowerAMP V12.0
#
DISCID=0211b813
DTITLE=Various Artist - The Story of Piano Blues: From the Country to the City
DYEAR=2013
DGENRE=Blues
TTITLE0=Pinetop Perkins - Five Long Years
TTITLE1=Henry Gray - Cold Chills
TTITLE2=James Crutchfield - Sittin On Top of the World
TTITLE3=Abie "Boogaloo" Ames - Tommy Dorsey's Boogie Woogie
TTITLE4=Jimmy Walker - Come On, Get Your Morning Exercise
TTITLE5=Pinetop Perkins - Everyday I Have the Blues
TTITLE6=Robert Shaw - The Cows
TTITLE7=Henry Gray - Blues Won't Let Me Rest
TTITLE8=Abie "Boogaloo" Ames - After Hours
TTITLE9=Mose Vinson - Good Morning Memphis
TTITLE10=Big Joe Duskin - If You Want To Be My Woman
TTITLE11=Pinetop Perkins - Kansas City
TTITLE12=Booker T. Laury - Big Legged Woman
TTITLE13=Henry Gray - When My First Wife Left Me
TTITLE14=Pinetop Perkins - Kidney Stew
TTITLE15=Big Joe Duskin - Key To the Highway
TTITLE16=Jimmy Walker - I Had Lots of Troubles
TTITLE17=Booker T. Laury - You Can Go Your Way
TTITLE18=Detroit Junior - Call My Job
EXTD=
EXTT0=
EXTT1=
EXTT2=
EXTT3=
EXTT4=
EXTT5=
EXTT6=
EXTT7=
EXTT8=
EXTT9=
EXTT10=
EXTT11=
EXTT12=
EXTT13=
EXTT14=
EXTT15=
EXTT16=
EXTT17=
EXTT18=
PLAYORDER=
